<?xml version="1.0" encoding="iso-8859-1"?>
<!-- Generator: Adobe Illustrator 16.0.0, SVG Export Plug-In . SVG Version: 6.00 Build 0)  -->
<!DOCTYPE svg PUBLIC "-//W3C//DTD SVG 1.1//EN" "http://www.w3.org/Graphics/SVG/1.1/DTD/svg11.dtd">
<svg version="1.1" id="Capa_1" xmlns="http://www.w3.org/2000/svg" xmlns:xlink="http://www.w3.org/1999/xlink" x="0px" y="0px"
	 width="253.344px" height="253.344px" viewBox="0 0 253.344 253.344" style="enable-background:new 0 0 253.344 253.344;"
	 xml:space="preserve">
<g>
	<g id="_x35__21_">
		<path d="M215.759,43.088c-21.186-1.143-36.49,18.039-37.547,37.549c0.757,13.957,7.13,23.856,15.858,29.754
			c-8.459,12.708-16.925,25.423-25.39,38.133c-4.732-2.474-10.009-3.972-15.32-4.256c-7.5-0.406-14.146,2.128-19.494,6.373
			c-9.691-10.826-19.385-21.649-29.071-32.476c1.668-3.473,2.699-7.272,2.907-11.098c0.784-14.576-12.418-25.12-25.839-25.844
			c-14.574-0.785-25.121,12.423-25.842,25.844c0.218,4.035,1.236,7.706,2.813,10.991c-7.962,9.232-15.927,18.461-23.889,27.693
			c-3.519-2.488-7.825-4.021-12.692-4.286C9.72,140.791,0.653,152.15,0.029,163.692c-0.675,12.532,10.691,21.597,22.224,22.216
			c12.533,0.676,21.602-10.684,22.219-22.216c-0.224-4.21-1.455-7.963-3.37-11.192c6.068-7.033,12.137-14.07,18.21-21.106
			c1.661-1.93,3.323-3.854,4.986-5.778c4.494,4.25,10.524,6.913,17.56,7.294c7.021,0.376,13.094-2.511,17.593-7.086
			c9.369,10.474,18.746,20.944,28.114,31.415c-4.222,5.783-6.822,12.872-7.206,20.032c1.008,18.656,14.34,31.981,32.997,32.992
			c18.616,1,32.062-15.854,32.992-32.992c0.513-9.552-3.688-17.722-10.202-23.562c8.693-13.056,17.382-26.111,26.075-39.164
			c21.358,7.701,49.435-3.593,51.074-33.903C254.443,59.449,235.264,44.139,215.759,43.088z"/>
	</g>
</g>
<g>
</g>
<g>
</g>
<g>
</g>
<g>
</g>
<g>
</g>
<g>
</g>
<g>
</g>
<g>
</g>
<g>
</g>
<g>
</g>
<g>
</g>
<g>
</g>
<g>
</g>
<g>
</g>
<g>
</g>
</svg>
