<?xml version="1.0" encoding="iso-8859-1"?>
<!-- Generator: Adobe Illustrator 19.0.0, SVG Export Plug-In . SVG Version: 6.00 Build 0)  -->
<svg version="1.1" id="Capa_1" xmlns="http://www.w3.org/2000/svg" xmlns:xlink="http://www.w3.org/1999/xlink" x="0px" y="0px"
	 viewBox="0 0 512 512" style="enable-background:new 0 0 512 512;" xml:space="preserve">
<g>
	<g>
		<path d="M433.886,161.024c0.87-5.385,1.314-10.726,1.314-15.957c0-56.465-45.935-102.4-102.4-102.4
			c-44.134,0-82.372,22.349-98.347,56.508c-12.911-5.308-24.806-5.308-38.187-5.308c-53.7,0-97.877,41.549-102.076,94.191
			C41.557,192.256,0,236.433,0,290.133c0,56.465,45.935,102.4,102.4,102.4H128c4.71,0,8.533-3.814,8.533-8.533
			s-3.823-8.533-8.533-8.533h-25.6c-47.053,0-85.333-38.281-85.333-85.333c0-47.053,38.281-85.333,85.333-85.333
			c4.71,0,8.533-3.814,8.533-8.533c0-47.053,38.281-85.333,85.333-85.333c16.99,0,26.402,0.324,38.34,7.347
			c2.219,1.297,4.907,1.527,7.322,0.64c2.415-0.905,4.292-2.85,5.103-5.291c10.573-31.727,45.841-53.897,85.768-53.897
			c47.053,0,85.333,38.281,85.333,85.333c0,6.391-0.802,13.022-2.389,19.712c-1.05,4.403,1.536,8.866,5.879,10.146
			c43.17,12.774,73.31,53.137,73.31,98.142c0,56.465-45.935,102.4-102.4,102.4h-17.067c-4.71,0-8.533,3.814-8.533,8.533
			s3.823,8.533,8.533,8.533h17.067c65.877,0,119.467-53.589,119.467-119.467C512,223.172,480.247,178.176,433.886,161.024z"/>
	</g>
</g>
<g>
	<g>
		<path d="M148.949,197.197c-12.638-6.451-27.435-9.463-46.549-9.463c-4.71,0-8.533,3.814-8.533,8.533s3.823,8.533,8.533,8.533
			c16.316,0,28.638,2.415,38.784,7.603c1.237,0.631,2.569,0.93,3.874,0.93c3.106,0,6.101-1.698,7.603-4.651
			C154.812,204.484,153.148,199.339,148.949,197.197z"/>
	</g>
</g>
<g>
	<g>
		<path d="M340.617,320.853c-15.198-34.748-47.625-56.32-84.617-56.32c-51.755,0-93.867,42.112-93.867,93.867
			c0,4.719,3.823,8.533,8.533,8.533s8.533-3.814,8.533-8.533c0-42.351,34.449-76.8,76.8-76.8c30.114,0,56.542,17.656,68.983,46.08
			c1.886,4.318,6.929,6.323,11.238,4.403C340.531,330.197,342.502,325.171,340.617,320.853z"/>
	</g>
</g>
<g>
	<g>
		<path d="M332.8,315.733h-59.733c-4.71,0-8.533,3.814-8.533,8.533s3.823,8.533,8.533,8.533H332.8c4.71,0,8.533-3.814,8.533-8.533
			S337.51,315.733,332.8,315.733z"/>
	</g>
</g>
<g>
	<g>
		<path d="M332.8,256c-4.71,0-8.533,3.814-8.533,8.533v59.733c0,4.719,3.823,8.533,8.533,8.533c4.71,0,8.533-3.814,8.533-8.533
			v-59.733C341.333,259.814,337.51,256,332.8,256z"/>
	</g>
</g>
<g>
	<g>
		<path d="M332.8,358.4c-4.71,0-8.533,3.814-8.533,8.533c0,42.351-34.449,76.8-76.8,76.8c-30.114,0-56.542-17.655-68.983-46.08
			c-1.886-4.326-6.921-6.306-11.238-4.403c-4.309,1.886-6.281,6.912-4.395,11.23c15.198,34.748,47.625,56.32,84.617,56.32
			c51.755,0,93.867-42.112,93.867-93.867C341.333,362.214,337.51,358.4,332.8,358.4z"/>
	</g>
</g>
<g>
	<g>
		<path d="M230.4,392.533h-59.733c-4.71,0-8.533,3.814-8.533,8.533c0,4.719,3.823,8.533,8.533,8.533H230.4
			c4.71,0,8.533-3.814,8.533-8.533C238.933,396.348,235.11,392.533,230.4,392.533z"/>
	</g>
</g>
<g>
	<g>
		<path d="M170.667,392.533c-4.71,0-8.533,3.814-8.533,8.533V460.8c0,4.719,3.823,8.533,8.533,8.533s8.533-3.814,8.533-8.533
			v-59.733C179.2,396.348,175.377,392.533,170.667,392.533z"/>
	</g>
</g>
<g>
</g>
<g>
</g>
<g>
</g>
<g>
</g>
<g>
</g>
<g>
</g>
<g>
</g>
<g>
</g>
<g>
</g>
<g>
</g>
<g>
</g>
<g>
</g>
<g>
</g>
<g>
</g>
<g>
</g>
</svg>
