<?xml version="1.0" encoding="iso-8859-1"?>
<!-- Generator: Adobe Illustrator 16.0.0, SVG Export Plug-In . SVG Version: 6.00 Build 0)  -->
<!DOCTYPE svg PUBLIC "-//W3C//DTD SVG 1.1//EN" "http://www.w3.org/Graphics/SVG/1.1/DTD/svg11.dtd">
<svg version="1.1" id="Capa_1" xmlns="http://www.w3.org/2000/svg" xmlns:xlink="http://www.w3.org/1999/xlink" x="0px" y="0px"
	 width="612px" height="612px" viewBox="0 0 612 612" style="enable-background:new 0 0 612 612;" xml:space="preserve">
<g>
	<path d="M612,342.869l-72.243,150.559c-9.036,17.516-27.098,28.521-46.808,28.521H66.974c-7.85,0-12.942-8.277-9.402-15.285
		l0.179-0.355c5.778-11.439,2.35-25.383-8.074-32.836l-0.589-0.422c-24.197-17.305-38.554-45.225-38.554-74.973v-34.141h379.228
		v-0.211c0-11.52,9.338-20.857,20.856-20.857H612L612,342.869z M368.693,216.46h-73.738c-5.818,0-10.534,4.716-10.534,10.534
		v115.875c0,5.818,4.716,10.535,10.534,10.535h73.738c5.817,0,10.534-4.717,10.534-10.535V226.994
		C379.228,221.176,374.511,216.46,368.693,216.46z M495.102,258.596h-84.272c-5.817,0-10.534,4.716-10.534,10.534v42.135
		c0,5.818,4.717,10.535,10.534,10.535h84.272c5.818,0,10.534-4.717,10.534-10.535V269.13
		C505.636,263.312,500.92,258.596,495.102,258.596z M168.545,353.402h84.272c5.818,0,10.534-4.717,10.534-10.533v-84.273
		c0-5.818-4.716-10.534-10.534-10.534h-84.272c-5.818,0-10.534,4.716-10.534,10.534v84.273
		C158.012,348.686,162.728,353.402,168.545,353.402z M163.155,195.391l-26.211,21.069v136.942H31.602V216.46H0v-21.069h73.738
		v-30.546H46.506v-12.296h27.232V90.051h10.534v62.498h27.233v12.296H84.272v30.546H163.155z M117.913,282.062h-34.28v31.457h34.28
		V282.062z M117.913,231.651h-34.28v31.458h34.28V231.651z"/>
</g>
<g>
</g>
<g>
</g>
<g>
</g>
<g>
</g>
<g>
</g>
<g>
</g>
<g>
</g>
<g>
</g>
<g>
</g>
<g>
</g>
<g>
</g>
<g>
</g>
<g>
</g>
<g>
</g>
<g>
</g>
</svg>
