<?xml version="1.0" encoding="iso-8859-1"?>
<!-- Generator: Adobe Illustrator 19.0.0, SVG Export Plug-In . SVG Version: 6.00 Build 0)  -->
<svg version="1.1" id="Capa_1" xmlns="http://www.w3.org/2000/svg" xmlns:xlink="http://www.w3.org/1999/xlink" x="0px" y="0px"
	 viewBox="0 0 480 480" style="enable-background:new 0 0 480 480;" xml:space="preserve">
<g>
	<g>
		<path d="M280.656,79.172c-6.831,1.461-13.491,3.628-19.875,6.465l6.438,14.648c5.362-2.389,10.957-4.215,16.695-5.449
			c53.581-11.162,108.816-11.842,162.656-2.004l2.859-15.742C393.565,66.878,336.252,67.586,280.656,79.172z"/>
	</g>
</g>
<g>
	<g>
		<path d="M280.656,127.172c-6.831,1.461-13.491,3.628-19.875,6.465l6.438,14.648c5.362-2.389,10.957-4.215,16.695-5.449
			c53.581-11.164,108.817-11.844,162.656-2.004l2.859-15.742C393.565,114.875,336.251,115.582,280.656,127.172z"/>
	</g>
</g>
<g>
	<g>
		<path d="M280.656,175.172c-6.831,1.461-13.491,3.628-19.875,6.465l6.438,14.648c5.362-2.389,10.957-4.215,16.695-5.449
			c53.581-11.162,108.816-11.842,162.656-2.004l2.859-15.742C393.565,162.88,336.252,163.588,280.656,175.172z"/>
	</g>
</g>
<g>
	<g>
		<path d="M280.656,223.172c-6.831,1.461-13.491,3.628-19.875,6.465l6.438,14.648c5.362-2.389,10.957-4.215,16.695-5.449
			c53.581-11.164,108.817-11.844,162.656-2.004l2.859-15.742C393.565,210.88,336.252,211.588,280.656,223.172z"/>
	</g>
</g>
<g>
	<g>
		<path d="M199.336,79.172C143.743,67.582,86.432,66.875,30.57,77.09l2.859,15.742c53.837-9.838,109.07-9.158,162.648,2.004
			c5.741,1.233,11.339,3.059,16.703,5.449l6.437-14.648C212.833,82.798,206.17,80.632,199.336,79.172z"/>
	</g>
</g>
<g>
	<g>
		<path d="M199.336,127.172c-55.592-11.59-112.904-12.297-168.766-2.082l2.859,15.742c53.837-9.838,109.07-9.158,162.648,2.004
			c5.741,1.233,11.339,3.059,16.703,5.449l6.437-14.648C212.833,130.798,206.17,128.632,199.336,127.172z"/>
	</g>
</g>
<g>
	<g>
		<path d="M199.336,175.172c-55.592-11.59-112.904-12.297-168.766-2.082l2.859,15.742c53.837-9.838,109.07-9.158,162.648,2.004
			c5.741,1.233,11.339,3.059,16.703,5.449l6.437-14.648C212.833,178.798,206.17,176.632,199.336,175.172z"/>
	</g>
</g>
<g>
	<g>
		<path d="M199.336,223.172c-55.593-11.588-112.904-12.295-168.766-2.082l2.859,15.742c53.837-9.838,109.07-9.158,162.648,2.004
			c5.741,1.233,11.339,3.059,16.703,5.449l6.437-14.648C212.833,226.798,206.17,224.632,199.336,223.172z"/>
	</g>
</g>
<g>
	<g>
		<path d="M473.172,10.051l-2.578-0.383C399.766-0.688,327.507,5.342,259.375,27.293l-18.914,6.113l-19.031-8.512
			c-0.262-0.12-0.53-0.225-0.805-0.312C152.496,2.631,80.239-3.397,9.414,6.961L6.836,7.34C2.909,7.916-0.001,11.285,0,15.254v280
			c0.001,4.419,3.584,8.001,8.003,8c0.625,0,1.248-0.074,1.856-0.219l50.984-12.172c27.847-6.684,56.796-7.375,84.93-2.027
			c6.627,1.338,13.116,3.289,19.383,5.828L168,295.88v38.085h-65.492C54.753,334.018,16.054,372.718,16,420.472v49.492
			c-0.001,4.417,3.579,7.999,7.996,8c0.001,0,0.003,0,0.004,0h432c4.417,0.001,7.999-3.579,8-7.996c0-0.001,0-0.003,0-0.004v-49.492
			c-0.054-47.755-38.753-86.454-86.508-86.508H312v-35.48l3.297-1.285c5.894-2.392,11.995-4.24,18.227-5.52
			c28.351-5.501,57.553-4.855,85.633,1.894l50.984,12.172c4.298,1.026,8.615-1.627,9.641-5.925c0.145-0.608,0.219-1.231,0.219-1.856
			v-280C479.999,13.999,477.094,10.633,473.172,10.051z M377.492,349.965c38.922,0.045,70.463,31.586,70.508,70.508v41.492H32
			v-41.492c0.045-38.922,31.586-70.463,70.508-70.508h66.789c9.186,39.048,48.288,63.256,87.336,54.07
			c26.82-6.309,47.761-27.25,54.07-54.07H377.492z M184,341.333v-38.612l52.852,22.599c1.927,0.824,4.102,0.859,6.055,0.098
			L296,304.721v36.612c-4.378,30.928-32.999,52.451-63.927,48.073C207.131,385.876,187.531,366.275,184,341.333z M464,287.832
			l-41.125-9.82c-30.293-7.286-61.797-7.982-92.383-2.043c-7.182,1.461-14.214,3.577-21.008,6.324l-69.344,27.031l-68.93-29.469
			c-7.262-2.945-14.785-5.201-22.469-6.738c-30.349-5.773-61.578-5.029-91.617,2.184L16,285.121V22.183
			c66.905-9.133,135.006-3.155,199.297,17.492l21.438,9.59c1.805,0.808,3.845,0.919,5.727,0.313l21.836-7.059
			C328.706,21.769,396.952,15.745,464,24.89V287.832z"/>
	</g>
</g>
<g>
	<g>
		<rect x="232" y="69.965" width="16" height="216"/>
	</g>
</g>
<g>
</g>
<g>
</g>
<g>
</g>
<g>
</g>
<g>
</g>
<g>
</g>
<g>
</g>
<g>
</g>
<g>
</g>
<g>
</g>
<g>
</g>
<g>
</g>
<g>
</g>
<g>
</g>
<g>
</g>
</svg>
