<?xml version="1.0" encoding="iso-8859-1"?>
<!-- Generator: Adobe Illustrator 16.0.0, SVG Export Plug-In . SVG Version: 6.00 Build 0)  -->
<!DOCTYPE svg PUBLIC "-//W3C//DTD SVG 1.1//EN" "http://www.w3.org/Graphics/SVG/1.1/DTD/svg11.dtd">
<svg version="1.1" id="Capa_1" xmlns="http://www.w3.org/2000/svg" xmlns:xlink="http://www.w3.org/1999/xlink" x="0px" y="0px"
	 width="533.333px" height="533.333px" viewBox="0 0 533.333 533.333" style="enable-background:new 0 0 533.333 533.333;"
	 xml:space="preserve">
<g>
	<path d="M137.225,395.504c0,14.09,11.924,21.137,35.765,21.137c20.867,0,31.296-7.313,31.296-21.943
		c0-13.823-11.378-20.728-34.138-20.728C148.197,373.967,137.225,381.145,137.225,395.504z M444.452,0H88.9
		C40.006,0,0,40.005,0,88.9v355.535c0,48.925,40.006,88.898,88.9,88.898h355.552c48.891,0,88.882-39.974,88.882-88.899V88.9
		C533.333,40.005,493.343,0,444.452,0z M247.774,213.015c-3.793,1.356-9.212,2.843-16.256,4.472
		c2.167,6.232,3.253,12.058,3.253,17.476c0,17.34-5.217,32.447-15.648,45.319c-10.432,12.868-23.913,20.524-40.44,22.962
		c-10.835,1.626-16.254,7.454-16.254,17.479c0,3.521,1.759,7.046,5.283,10.567c4.606,5.148,11.379,8.402,20.322,9.757
		c38.745,5.959,58.118,22.081,58.118,48.361c0,42.001-25.064,63-75.188,63c-20.595,0-37.529-3.659-50.804-10.973
		c-16.801-9.214-25.196-23.71-25.196-43.489c0-22.765,12.6-38.344,37.793-46.739v-0.812c-9.21-5.689-13.815-14.359-13.815-26.012
		c0-15.174,4.336-24.658,13.004-28.449v-0.813c-8.67-2.981-16.393-9.757-23.167-20.326c-7.586-11.381-11.38-23.573-11.38-36.578
		c0-19.51,6.912-35.766,20.725-48.771c13.279-12.195,29.129-18.29,47.555-18.29c13.278,0,25.603,3.249,36.985,9.751
		c13.005,0,28.042-3.25,45.118-9.751L247.774,213.015L247.774,213.015z M313.634,353.643h-45.931
		c0.544-5.418,0.812-14.627,0.812-27.638V199.604c0-12.737-0.272-21.544-0.812-26.416h45.931
		c-0.542,5.148-0.813,13.682-0.813,25.606v124.773C312.821,337.386,313.092,347.412,313.634,353.643z M310.583,132.543
		c-5.555,5.96-12.127,8.938-19.712,8.938c-7.856,0-14.562-2.979-20.118-8.938c-5.555-5.965-8.334-13.007-8.334-21.134
		c0-8.404,2.779-15.58,8.334-21.545c5.556-5.96,12.262-8.942,20.118-8.942c7.585,0,14.158,2.982,19.712,8.942
		c5.555,5.966,8.332,13.14,8.332,21.545C318.915,119.536,316.137,126.579,310.583,132.543z M438.379,348.358
		c-10.027,5.422-22.086,8.128-36.175,8.128c-19.776,0-33.463-7.042-41.048-21.133c-5.692-10.567-8.534-27.229-8.534-49.987v-72.753
		h0.406V211.8l-6.098-0.408c-3.523,0-8.131,0.408-13.819,1.22v-39.425h19.913v-15.85c0-7.589-0.406-13.688-1.219-18.292h47.145
		c-0.808,5.146-1.216,10.972-1.216,17.475v16.666h35.355v39.423c-1.354,0-3.858-0.134-7.519-0.405
		c-3.658-0.271-7.113-0.409-10.364-0.409h-17.475v75.596c0,18.159,5.964,27.235,17.883,27.235c8.397,0,15.987-2.301,22.764-6.908
		V348.358L438.379,348.358z M167.3,208.545c-17.071,0-25.606,10.028-25.606,30.076c0,18.699,8.536,28.046,25.606,28.046
		c16.529,0,24.793-9.483,24.793-28.451c0-7.859-1.896-14.632-5.688-20.324C181.796,211.661,175.428,208.545,167.3,208.545z"/>
</g>
<g>
</g>
<g>
</g>
<g>
</g>
<g>
</g>
<g>
</g>
<g>
</g>
<g>
</g>
<g>
</g>
<g>
</g>
<g>
</g>
<g>
</g>
<g>
</g>
<g>
</g>
<g>
</g>
<g>
</g>
</svg>
