<?xml version="1.0" encoding="iso-8859-1"?>
<!-- Generator: Adobe Illustrator 16.0.0, SVG Export Plug-In . SVG Version: 6.00 Build 0)  -->
<!DOCTYPE svg PUBLIC "-//W3C//DTD SVG 1.1//EN" "http://www.w3.org/Graphics/SVG/1.1/DTD/svg11.dtd">
<svg version="1.1" id="Capa_1" xmlns="http://www.w3.org/2000/svg" xmlns:xlink="http://www.w3.org/1999/xlink" x="0px" y="0px"
	 width="548.29px" height="548.291px" viewBox="0 0 548.29 548.291" style="enable-background:new 0 0 548.29 548.291;"
	 xml:space="preserve">
<g>
	<g>
		<path d="M211.233,271.523c-4.364,0-7.154,0.386-8.493,0.795v28.337h8.176c9.283,0,15.116-5.864,15.116-14.761
			C226.032,276.035,220.2,271.523,211.233,271.523z"/>
		<path d="M120.836,305.049c0,18.252,7.725,32.745,20.943,32.745c13.326,0,20.83-14.636,20.83-33.407
			c0-16.908-7.063-32.858-20.83-32.858C128.12,271.523,120.836,286.555,120.836,305.049z"/>
		<path d="M274.98,271.523c-4.37,0-7.149,0.386-8.493,0.795v28.337h8.16c9.303,0,15.129-5.864,15.129-14.761
			C289.775,276.035,283.949,271.523,274.98,271.523z"/>
		<path d="M486.208,196.121h-13.171v-63.525c0-0.396-0.058-0.795-0.109-1.2c-0.026-2.52-0.829-4.997-2.556-6.96L364.664,3.677
			c-0.038-0.031-0.063-0.042-0.085-0.075c-0.629-0.704-1.363-1.29-2.143-1.796c-0.234-0.154-0.46-0.283-0.701-0.419
			c-0.673-0.365-1.387-0.672-2.132-0.893c-0.189-0.052-0.367-0.134-0.566-0.186C358.237,0.118,357.409,0,356.564,0H96.76
			C84.901,0,75.259,9.649,75.259,21.502v174.613H62.087c-16.968,0-30.729,13.756-30.729,30.733v159.812
			c0,16.961,13.761,30.731,30.729,30.731h13.166V526.79c0,11.854,9.643,21.501,21.501,21.501h354.776
			c11.853,0,21.501-9.647,21.501-21.501V417.392h13.166c16.966,0,30.734-13.764,30.734-30.731V226.854
			C516.938,209.872,503.174,196.121,486.208,196.121z M96.76,21.502h249.054v110.006c0,5.94,4.823,10.751,10.751,10.751h94.972
			v53.861H96.76V21.502z M386.895,317.421v32.096h-12.655v-89.718h15.686l19.475,38.473c5.045,9.975,9.396,20.357,12.865,30.074
			h0.226c-0.886-11.984-1.218-23.549-1.218-37.255v-31.292h12.767v89.718h-14.221l-19.711-39.403
			c-4.819-9.857-9.837-20.892-13.538-31.013l-0.353,0.125C386.785,290.818,386.895,302.65,386.895,317.421z M358.774,296.403v13.309
			h-28.441v26.356h31.789v13.449h-45.58v-89.718h43.905v13.449h-30.125v23.165h28.452V296.403z M300.295,324.477
			c2.342,11.19,4.368,21.581,5.932,25.04h-14.216c-1.122-2.667-2.906-9.99-5.049-21.171c-2.121-11.712-5.7-15.434-13.546-15.706
			h-6.929v36.877h-13.67v-88.524c5.155-1.05,12.874-1.851,20.83-1.851c10.859,0,18.239,2.129,23.29,7.182
			c4.135,4.128,6.487,10.383,6.487,17.963c0,11.58-6.608,19.433-13.648,22.499v0.398
			C295.14,309.579,298.389,315.837,300.295,324.477z M236.557,324.477c2.344,11.19,4.359,21.581,5.934,25.04h-14.223
			c-1.113-2.667-2.908-9.99-5.042-21.171c-2.123-11.712-5.708-15.434-13.546-15.706h-6.94v36.877h-13.659v-88.524
			c5.145-1.05,12.879-1.851,20.825-1.851c10.863,0,18.254,2.129,23.286,7.182c4.139,4.128,6.494,10.383,6.494,17.963
			c0,11.58-6.612,19.433-13.653,22.499v0.398C231.402,309.579,234.638,315.837,236.557,324.477z M177.165,303.72
			c0,30.069-15.346,47.246-36.17,47.246c-21.271,0-34.699-19.298-34.699-45.639c0-27.571,14.54-47,35.822-47
			C164.179,258.327,177.165,278.162,177.165,303.72z M82.734,273.495v76.022H68.975v-76.022H47.473v-13.701h56.983v13.701H82.734z
			 M451.536,520.968H96.76V417.392h354.776V520.968z M499.915,273.495h-21.718v76.022h-13.774v-76.022h-21.5v-13.701h56.992V273.495
			z"/>
	</g>
</g>
<g>
</g>
<g>
</g>
<g>
</g>
<g>
</g>
<g>
</g>
<g>
</g>
<g>
</g>
<g>
</g>
<g>
</g>
<g>
</g>
<g>
</g>
<g>
</g>
<g>
</g>
<g>
</g>
<g>
</g>
</svg>
